<svg xmlns="http://www.w3.org/2000/svg" xmlns:xlink="http://www.w3.org/1999/xlink" width="1024" zoomAndPan="magnify" viewBox="0 0 768 767.999994" height="1024" preserveAspectRatio="xMidYMid meet" version="1.0"><defs><clipPath id="id1"><path d="M 45.382812 0 L 722.632812 0 L 722.632812 768 L 45.382812 768 Z M 45.382812 0 " clip-rule="nonzero"/></clipPath></defs><path fill="#ffffff" d="M 235.425781 108.195312 C 235.425781 106.429688 235.335938 104.667969 235.164062 102.914062 C 234.992188 101.15625 234.734375 99.414062 234.390625 97.683594 C 234.046875 95.953125 233.617188 94.246094 233.105469 92.554688 C 232.59375 90.867188 232 89.207031 231.324219 87.578125 C 230.648438 85.949219 229.894531 84.355469 229.0625 82.800781 C 228.230469 81.242188 227.324219 79.734375 226.34375 78.265625 C 225.367188 76.796875 224.316406 75.382812 223.195312 74.019531 C 222.078125 72.65625 220.894531 71.351562 219.644531 70.101562 C 218.398438 68.855469 217.09375 67.671875 215.730469 66.550781 C 214.363281 65.433594 212.949219 64.382812 211.484375 63.402344 C 210.015625 62.421875 208.503906 61.515625 206.949219 60.683594 C 205.390625 59.855469 203.800781 59.101562 202.167969 58.425781 C 200.539062 57.75 198.878906 57.15625 197.191406 56.644531 C 195.503906 56.132812 193.792969 55.703125 192.0625 55.359375 C 190.332031 55.015625 188.589844 54.757812 186.835938 54.585938 C 185.078125 54.410156 183.316406 54.324219 181.554688 54.324219 C 179.789062 54.324219 178.03125 54.410156 176.273438 54.585938 C 174.519531 54.757812 172.773438 55.015625 171.042969 55.359375 C 169.3125 55.703125 167.605469 56.132812 165.914062 56.644531 C 164.226562 57.15625 162.570312 57.75 160.9375 58.425781 C 159.308594 59.101562 157.714844 59.855469 156.160156 60.683594 C 154.601562 61.515625 153.09375 62.421875 151.625 63.402344 C 150.15625 64.382812 148.742188 65.433594 147.378906 66.550781 C 146.015625 67.671875 144.710938 68.855469 143.460938 70.101562 C 142.214844 71.351562 141.03125 72.65625 139.910156 74.019531 C 138.792969 75.382812 137.742188 76.796875 136.761719 78.265625 C 135.78125 79.734375 134.875 81.242188 134.042969 82.800781 C 133.210938 84.355469 132.460938 85.949219 131.785156 87.578125 C 131.109375 89.207031 130.515625 90.867188 130.003906 92.554688 C 129.492188 94.246094 129.0625 95.953125 128.71875 97.683594 C 128.375 99.414062 128.117188 101.15625 127.941406 102.914062 C 127.769531 104.667969 127.683594 106.429688 127.683594 108.195312 C 127.683594 109.957031 127.769531 111.71875 127.941406 113.472656 C 128.117188 115.230469 128.375 116.972656 128.71875 118.703125 C 129.0625 120.433594 129.492188 122.140625 130.003906 123.832031 C 130.515625 125.519531 131.109375 127.179688 131.785156 128.808594 C 132.460938 130.4375 133.210938 132.03125 134.042969 133.585938 C 134.875 135.144531 135.78125 136.65625 136.761719 138.121094 C 137.742188 139.589844 138.792969 141.003906 139.910156 142.367188 C 141.03125 143.730469 142.214844 145.035156 143.460938 146.285156 C 144.710938 147.53125 146.015625 148.714844 147.378906 149.835938 C 148.742188 150.953125 150.15625 152.003906 151.625 152.984375 C 153.09375 153.964844 154.601562 154.871094 156.160156 155.703125 C 157.714844 156.53125 159.308594 157.285156 160.9375 157.960938 C 162.570312 158.636719 164.226562 159.230469 165.914062 159.742188 C 167.605469 160.253906 169.3125 160.683594 171.042969 161.027344 C 172.773438 161.371094 174.519531 161.628906 176.273438 161.804688 C 178.03125 161.976562 179.789062 162.0625 181.554688 162.0625 C 183.316406 162.058594 185.078125 161.972656 186.832031 161.796875 C 188.585938 161.621094 190.328125 161.363281 192.058594 161.015625 C 193.789062 160.671875 195.496094 160.242188 197.183594 159.726562 C 198.871094 159.214844 200.53125 158.621094 202.160156 157.941406 C 203.789062 157.265625 205.378906 156.511719 206.933594 155.679688 C 208.488281 154.847656 210 153.941406 211.464844 152.960938 C 212.933594 151.980469 214.347656 150.933594 215.710938 149.8125 C 217.074219 148.695312 218.378906 147.511719 219.625 146.265625 C 220.871094 145.015625 222.054688 143.710938 223.175781 142.347656 C 224.292969 140.984375 225.34375 139.570312 226.324219 138.105469 C 227.304688 136.640625 228.210938 135.128906 229.042969 133.574219 C 229.875 132.019531 230.628906 130.425781 231.304688 128.796875 C 231.980469 127.167969 232.574219 125.511719 233.089844 123.824219 C 233.601562 122.136719 234.03125 120.425781 234.378906 118.699219 C 234.722656 116.96875 234.984375 115.226562 235.160156 113.472656 C 235.332031 111.714844 235.421875 109.957031 235.425781 108.195312 Z M 155.390625 108.195312 C 155.390625 107.328125 155.433594 106.46875 155.519531 105.609375 C 155.605469 104.75 155.730469 103.894531 155.898438 103.046875 C 156.066406 102.199219 156.277344 101.363281 156.527344 100.539062 C 156.777344 99.710938 157.070312 98.898438 157.398438 98.101562 C 157.730469 97.300781 158.101562 96.523438 158.507812 95.761719 C 158.914062 95 159.359375 94.257812 159.839844 93.542969 C 160.316406 92.824219 160.832031 92.128906 161.378906 91.460938 C 161.929688 90.792969 162.507812 90.15625 163.117188 89.546875 C 163.730469 88.933594 164.371094 88.355469 165.039062 87.808594 C 165.707031 87.257812 166.398438 86.746094 167.117188 86.265625 C 167.835938 85.785156 168.574219 85.34375 169.335938 84.9375 C 170.097656 84.527344 170.878906 84.160156 171.675781 83.832031 C 172.476562 83.5 173.289062 83.210938 174.113281 82.960938 C 174.941406 82.707031 175.777344 82.5 176.625 82.332031 C 177.472656 82.164062 178.328125 82.035156 179.1875 81.953125 C 180.046875 81.867188 180.90625 81.824219 181.769531 81.828125 C 182.636719 81.828125 183.496094 81.871094 184.355469 81.953125 C 185.214844 82.039062 186.070312 82.167969 186.917969 82.335938 C 187.765625 82.503906 188.601562 82.714844 189.425781 82.964844 C 190.253906 83.21875 191.066406 83.507812 191.863281 83.839844 C 192.660156 84.171875 193.441406 84.539062 194.203125 84.945312 C 194.964844 85.355469 195.703125 85.796875 196.421875 86.277344 C 197.140625 86.757812 197.832031 87.273438 198.5 87.820312 C 199.167969 88.371094 199.808594 88.949219 200.417969 89.5625 C 201.027344 90.171875 201.605469 90.8125 202.152344 91.480469 C 202.703125 92.148438 203.214844 92.839844 203.695312 93.558594 C 204.175781 94.277344 204.617188 95.019531 205.023438 95.78125 C 205.429688 96.542969 205.796875 97.324219 206.128906 98.121094 C 206.457031 98.921875 206.75 99.734375 207 100.558594 C 207.25 101.386719 207.457031 102.222656 207.625 103.070312 C 207.792969 103.917969 207.917969 104.773438 208.003906 105.632812 C 208.085938 106.492188 208.128906 107.351562 208.128906 108.214844 C 208.128906 109.082031 208.085938 109.941406 208 110.800781 C 207.914062 111.660156 207.785156 112.515625 207.617188 113.363281 C 207.449219 114.207031 207.238281 115.046875 206.984375 115.871094 C 206.734375 116.699219 206.441406 117.511719 206.109375 118.308594 C 205.78125 119.105469 205.410156 119.886719 205.003906 120.644531 C 204.59375 121.40625 204.148438 122.148438 203.667969 122.863281 C 203.1875 123.582031 202.671875 124.273438 202.125 124.941406 C 201.578125 125.609375 200.996094 126.246094 200.386719 126.859375 C 199.773438 127.46875 199.132812 128.046875 198.464844 128.59375 C 197.796875 129.140625 197.101562 129.65625 196.382812 130.132812 C 195.664062 130.613281 194.925781 131.054688 194.164062 131.460938 C 193.398438 131.867188 192.621094 132.234375 191.820312 132.566406 C 191.023438 132.894531 190.210938 133.183594 189.382812 133.433594 C 188.554688 133.683594 187.71875 133.894531 186.871094 134.058594 C 186.023438 134.226562 185.171875 134.351562 184.3125 134.4375 C 183.453125 134.519531 182.589844 134.5625 181.726562 134.5625 C 180.863281 134.558594 180.003906 134.515625 179.144531 134.425781 C 178.285156 134.339844 177.433594 134.210938 176.589844 134.042969 C 175.742188 133.871094 174.90625 133.660156 174.082031 133.410156 C 173.257812 133.15625 172.445312 132.867188 171.652344 132.535156 C 170.855469 132.203125 170.078125 131.832031 169.316406 131.425781 C 168.554688 131.019531 167.816406 130.574219 167.101562 130.09375 C 166.382812 129.613281 165.691406 129.101562 165.027344 128.554688 C 164.359375 128.003906 163.722656 127.425781 163.113281 126.816406 C 162.503906 126.207031 161.925781 125.566406 161.378906 124.898438 C 160.832031 124.234375 160.316406 123.539062 159.839844 122.824219 C 159.359375 122.105469 158.917969 121.367188 158.511719 120.605469 C 158.105469 119.847656 157.734375 119.066406 157.40625 118.269531 C 157.074219 117.472656 156.785156 116.664062 156.53125 115.835938 C 156.28125 115.011719 156.074219 114.175781 155.902344 113.332031 C 155.734375 112.484375 155.605469 111.632812 155.523438 110.773438 C 155.4375 109.917969 155.394531 109.054688 155.390625 108.195312 Z M 155.390625 108.195312 " fill-opacity="1" fill-rule="nonzero"/><path fill="#ffffff" d="M 316.96875 131.742188 L 408.621094 131.742188 C 409.523438 131.742188 410.417969 131.652344 411.304688 131.476562 C 412.191406 131.300781 413.050781 131.039062 413.882812 130.695312 C 414.71875 130.347656 415.511719 129.925781 416.261719 129.425781 C 417.011719 128.921875 417.707031 128.351562 418.34375 127.714844 C 418.984375 127.074219 419.554688 126.382812 420.054688 125.628906 C 420.558594 124.878906 420.980469 124.085938 421.324219 123.253906 C 421.671875 122.417969 421.933594 121.558594 422.109375 120.671875 C 422.285156 119.789062 422.371094 118.894531 422.371094 117.992188 C 422.371094 117.089844 422.285156 116.195312 422.109375 115.308594 C 421.933594 114.421875 421.671875 113.5625 421.324219 112.730469 C 420.980469 111.894531 420.558594 111.101562 420.054688 110.351562 C 419.554688 109.601562 418.984375 108.90625 418.34375 108.269531 C 417.707031 107.628906 417.011719 107.058594 416.261719 106.558594 C 415.511719 106.054688 414.71875 105.632812 413.882812 105.285156 C 413.050781 104.941406 412.191406 104.679688 411.304688 104.503906 C 410.417969 104.328125 409.523438 104.238281 408.621094 104.238281 L 316.96875 104.238281 C 316.066406 104.238281 315.171875 104.328125 314.285156 104.503906 C 313.402344 104.679688 312.542969 104.941406 311.707031 105.285156 C 310.871094 105.632812 310.082031 106.054688 309.328125 106.558594 C 308.578125 107.058594 307.882812 107.628906 307.246094 108.269531 C 306.605469 108.90625 306.039062 109.601562 305.535156 110.351562 C 305.035156 111.101562 304.609375 111.894531 304.265625 112.730469 C 303.917969 113.5625 303.660156 114.421875 303.480469 115.308594 C 303.304688 116.195312 303.21875 117.089844 303.21875 117.992188 C 303.21875 118.894531 303.304688 119.789062 303.480469 120.671875 C 303.660156 121.558594 303.917969 122.417969 304.265625 123.253906 C 304.609375 124.085938 305.035156 124.878906 305.535156 125.628906 C 306.039062 126.382812 306.605469 127.074219 307.246094 127.714844 C 307.882812 128.351562 308.578125 128.921875 309.328125 129.425781 C 310.082031 129.925781 310.871094 130.347656 311.707031 130.695312 C 312.542969 131.039062 313.402344 131.300781 314.285156 131.476562 C 315.171875 131.652344 316.066406 131.742188 316.96875 131.742188 Z M 316.96875 131.742188 " fill-opacity="1" fill-rule="nonzero"/><path fill="#ffffff" d="M 484.082031 131.742188 L 575.769531 131.742188 C 576.671875 131.742188 577.566406 131.652344 578.449219 131.476562 C 579.335938 131.300781 580.195312 131.039062 581.03125 130.695312 C 581.863281 130.347656 582.65625 129.925781 583.40625 129.425781 C 584.160156 128.921875 584.851562 128.351562 585.492188 127.714844 C 586.128906 127.074219 586.699219 126.382812 587.203125 125.628906 C 587.703125 124.878906 588.128906 124.085938 588.472656 123.253906 C 588.816406 122.417969 589.078125 121.558594 589.253906 120.671875 C 589.429688 119.789062 589.519531 118.894531 589.519531 117.992188 C 589.519531 117.089844 589.429688 116.195312 589.253906 115.308594 C 589.078125 114.421875 588.816406 113.5625 588.472656 112.730469 C 588.128906 111.894531 587.703125 111.101562 587.203125 110.351562 C 586.699219 109.601562 586.128906 108.90625 585.492188 108.269531 C 584.851562 107.628906 584.160156 107.058594 583.40625 106.558594 C 582.65625 106.054688 581.863281 105.632812 581.03125 105.285156 C 580.195312 104.941406 579.335938 104.679688 578.449219 104.503906 C 577.566406 104.328125 576.671875 104.238281 575.769531 104.238281 L 484.082031 104.238281 C 483.179688 104.238281 482.285156 104.328125 481.398438 104.503906 C 480.511719 104.679688 479.652344 104.941406 478.820312 105.285156 C 477.984375 105.632812 477.191406 106.054688 476.441406 106.558594 C 475.691406 107.058594 474.996094 107.628906 474.359375 108.269531 C 473.71875 108.90625 473.148438 109.601562 472.648438 110.351562 C 472.144531 111.101562 471.722656 111.894531 471.378906 112.730469 C 471.03125 113.5625 470.769531 114.421875 470.59375 115.308594 C 470.417969 116.195312 470.332031 117.089844 470.332031 117.992188 C 470.332031 118.894531 470.417969 119.789062 470.59375 120.671875 C 470.769531 121.558594 471.03125 122.417969 471.378906 123.253906 C 471.722656 124.085938 472.144531 124.878906 472.648438 125.628906 C 473.148438 126.382812 473.71875 127.074219 474.359375 127.714844 C 474.996094 128.351562 475.691406 128.921875 476.441406 129.425781 C 477.191406 129.925781 477.984375 130.347656 478.820312 130.695312 C 479.652344 131.039062 480.511719 131.300781 481.398438 131.476562 C 482.285156 131.652344 483.179688 131.742188 484.082031 131.742188 Z M 484.082031 131.742188 " fill-opacity="1" fill-rule="nonzero"/><path fill="#ffffff" d="M 235.425781 374.203125 C 235.425781 372.4375 235.335938 370.679688 235.164062 368.921875 C 234.992188 367.167969 234.734375 365.421875 234.390625 363.691406 C 234.046875 361.964844 233.617188 360.253906 233.105469 358.566406 C 232.59375 356.878906 232 355.21875 231.324219 353.589844 C 230.648438 351.957031 229.894531 350.363281 229.0625 348.808594 C 228.230469 347.253906 227.324219 345.742188 226.34375 344.273438 C 225.367188 342.808594 224.316406 341.390625 223.195312 340.027344 C 222.078125 338.664062 220.894531 337.359375 219.644531 336.113281 C 218.398438 334.863281 217.09375 333.679688 215.730469 332.5625 C 214.363281 331.441406 212.949219 330.394531 211.484375 329.414062 C 210.015625 328.433594 208.503906 327.527344 206.949219 326.695312 C 205.390625 325.863281 203.800781 325.109375 202.167969 324.433594 C 200.539062 323.757812 198.878906 323.164062 197.191406 322.652344 C 195.503906 322.140625 193.792969 321.714844 192.0625 321.367188 C 190.332031 321.023438 188.589844 320.765625 186.835938 320.59375 C 185.078125 320.421875 183.316406 320.332031 181.554688 320.332031 C 179.789062 320.332031 178.03125 320.421875 176.273438 320.59375 C 174.519531 320.765625 172.773438 321.023438 171.042969 321.367188 C 169.3125 321.714844 167.605469 322.140625 165.914062 322.652344 C 164.226562 323.164062 162.570312 323.757812 160.9375 324.433594 C 159.308594 325.109375 157.714844 325.863281 156.160156 326.695312 C 154.601562 327.527344 153.09375 328.433594 151.625 329.414062 C 150.15625 330.390625 148.742188 331.441406 147.378906 332.5625 C 146.015625 333.679688 144.710938 334.863281 143.460938 336.113281 C 142.214844 337.359375 141.03125 338.664062 139.910156 340.027344 C 138.792969 341.390625 137.742188 342.808594 136.761719 344.273438 C 135.78125 345.742188 134.875 347.253906 134.042969 348.808594 C 133.210938 350.363281 132.460938 351.957031 131.785156 353.589844 C 131.109375 355.21875 130.515625 356.878906 130.003906 358.566406 C 129.492188 360.253906 129.0625 361.964844 128.71875 363.691406 C 128.375 365.421875 128.117188 367.167969 127.941406 368.921875 C 127.769531 370.679688 127.683594 372.4375 127.683594 374.203125 C 127.683594 375.96875 127.769531 377.726562 127.941406 379.484375 C 128.117188 381.238281 128.375 382.980469 128.71875 384.710938 C 129.0625 386.441406 129.492188 388.152344 130.003906 389.839844 C 130.515625 391.527344 131.109375 393.1875 131.785156 394.816406 C 132.460938 396.445312 133.210938 398.039062 134.042969 399.597656 C 134.875 401.152344 135.78125 402.664062 136.761719 404.128906 C 137.742188 405.597656 138.792969 407.011719 139.910156 408.375 C 141.03125 409.742188 142.214844 411.046875 143.460938 412.292969 C 144.710938 413.542969 146.015625 414.722656 147.378906 415.84375 C 148.742188 416.964844 150.15625 418.011719 151.625 418.992188 C 153.09375 419.972656 154.601562 420.878906 156.160156 421.710938 C 157.714844 422.542969 159.308594 423.296875 160.9375 423.972656 C 162.570312 424.644531 164.226562 425.238281 165.914062 425.75 C 167.605469 426.265625 169.3125 426.691406 171.042969 427.035156 C 172.773438 427.378906 174.519531 427.640625 176.273438 427.8125 C 178.03125 427.984375 179.789062 428.070312 181.554688 428.070312 C 183.316406 428.070312 185.078125 427.980469 186.832031 427.804688 C 188.585938 427.628906 190.328125 427.371094 192.058594 427.023438 C 193.789062 426.679688 195.496094 426.25 197.183594 425.734375 C 198.871094 425.222656 200.53125 424.628906 202.160156 423.953125 C 203.789062 423.277344 205.378906 422.523438 206.933594 421.691406 C 208.488281 420.859375 210 419.953125 211.464844 418.972656 C 212.933594 417.992188 214.347656 416.941406 215.710938 415.824219 C 217.074219 414.703125 218.378906 413.519531 219.625 412.273438 C 220.871094 411.027344 222.054688 409.722656 223.175781 408.359375 C 224.292969 406.996094 225.34375 405.582031 226.324219 404.113281 C 227.304688 402.648438 228.210938 401.136719 229.042969 399.582031 C 229.875 398.027344 230.628906 396.433594 231.304688 394.804688 C 231.980469 393.175781 232.574219 391.519531 233.089844 389.832031 C 233.601562 388.144531 234.03125 386.4375 234.378906 384.707031 C 234.722656 382.976562 234.984375 381.234375 235.160156 379.480469 C 235.332031 377.726562 235.421875 375.964844 235.425781 374.203125 Z M 155.21875 374.203125 C 155.21875 373.339844 155.261719 372.476562 155.347656 371.617188 C 155.433594 370.757812 155.558594 369.90625 155.726562 369.058594 C 155.894531 368.210938 156.105469 367.375 156.355469 366.546875 C 156.605469 365.71875 156.898438 364.90625 157.226562 364.109375 C 157.558594 363.3125 157.929688 362.53125 158.335938 361.769531 C 158.742188 361.007812 159.1875 360.269531 159.667969 359.550781 C 160.144531 358.832031 160.660156 358.140625 161.207031 357.472656 C 161.757812 356.804688 162.335938 356.164062 162.945312 355.554688 C 163.558594 354.945312 164.199219 354.363281 164.867188 353.816406 C 165.535156 353.269531 166.226562 352.753906 166.945312 352.273438 C 167.664062 351.796875 168.402344 351.351562 169.164062 350.945312 C 169.925781 350.539062 170.707031 350.167969 171.503906 349.839844 C 172.304688 349.507812 173.117188 349.21875 173.941406 348.96875 C 174.769531 348.71875 175.605469 348.507812 176.453125 348.339844 C 177.300781 348.171875 178.15625 348.046875 179.015625 347.960938 C 179.875 347.878906 180.734375 347.835938 181.597656 347.835938 C 182.464844 347.835938 183.324219 347.878906 184.183594 347.964844 C 185.042969 348.046875 185.898438 348.175781 186.746094 348.34375 C 187.59375 348.511719 188.429688 348.722656 189.253906 348.976562 C 190.082031 349.226562 190.894531 349.515625 191.691406 349.847656 C 192.488281 350.179688 193.269531 350.546875 194.03125 350.957031 C 194.792969 351.363281 195.53125 351.808594 196.25 352.289062 C 196.96875 352.769531 197.660156 353.28125 198.328125 353.832031 C 198.996094 354.378906 199.636719 354.960938 200.246094 355.570312 C 200.855469 356.179688 201.433594 356.820312 201.980469 357.488281 C 202.53125 358.15625 203.042969 358.851562 203.523438 359.570312 C 204.003906 360.289062 204.445312 361.027344 204.851562 361.789062 C 205.257812 362.550781 205.625 363.332031 205.957031 364.132812 C 206.285156 364.929688 206.578125 365.742188 206.828125 366.570312 C 207.078125 367.394531 207.285156 368.230469 207.453125 369.078125 C 207.621094 369.925781 207.746094 370.78125 207.832031 371.640625 C 207.914062 372.5 207.957031 373.363281 207.957031 374.226562 C 207.957031 375.089844 207.914062 375.949219 207.828125 376.808594 C 207.742188 377.671875 207.613281 378.523438 207.445312 379.371094 C 207.277344 380.21875 207.066406 381.054688 206.8125 381.878906 C 206.5625 382.707031 206.269531 383.519531 205.9375 384.316406 C 205.609375 385.113281 205.238281 385.894531 204.832031 386.65625 C 204.421875 387.417969 203.976562 388.15625 203.496094 388.875 C 203.015625 389.589844 202.5 390.285156 201.953125 390.953125 C 201.40625 391.617188 200.824219 392.257812 200.210938 392.867188 C 199.601562 393.476562 198.960938 394.054688 198.292969 394.601562 C 197.625 395.152344 196.929688 395.664062 196.210938 396.144531 C 195.492188 396.621094 194.753906 397.066406 193.992188 397.472656 C 193.226562 397.878906 192.449219 398.246094 191.648438 398.574219 C 190.851562 398.90625 190.039062 399.195312 189.210938 399.445312 C 188.382812 399.695312 187.546875 399.902344 186.699219 400.070312 C 185.851562 400.238281 185 400.363281 184.140625 400.445312 C 183.28125 400.53125 182.417969 400.570312 181.554688 400.570312 C 180.695312 400.5625 179.839844 400.511719 178.984375 400.421875 C 178.128906 400.328125 177.28125 400.195312 176.441406 400.023438 C 175.601562 399.847656 174.769531 399.632812 173.949219 399.378906 C 173.128906 399.125 172.324219 398.828125 171.53125 398.496094 C 170.742188 398.160156 169.96875 397.789062 169.210938 397.378906 C 168.457031 396.96875 167.722656 396.523438 167.011719 396.042969 C 166.300781 395.5625 165.613281 395.050781 164.953125 394.5 C 164.289062 393.953125 163.65625 393.375 163.050781 392.765625 C 162.445312 392.15625 161.871094 391.515625 161.332031 390.851562 C 160.789062 390.183594 160.277344 389.496094 159.804688 388.78125 C 159.328125 388.0625 158.886719 387.328125 158.484375 386.570312 C 158.082031 385.808594 157.714844 385.035156 157.386719 384.238281 C 157.0625 383.445312 156.773438 382.636719 156.523438 381.816406 C 156.273438 380.992188 156.066406 380.160156 155.898438 379.320312 C 155.730469 378.476562 155.605469 377.628906 155.519531 376.773438 C 155.4375 375.917969 155.394531 375.0625 155.390625 374.203125 Z M 155.21875 374.203125 " fill-opacity="1" fill-rule="nonzero"/><path fill="#ffffff" d="M 316.96875 397.75 L 408.621094 397.75 C 409.523438 397.75 410.417969 397.664062 411.304688 397.488281 C 412.191406 397.308594 413.050781 397.050781 413.882812 396.703125 C 414.71875 396.359375 415.511719 395.933594 416.261719 395.433594 C 417.011719 394.933594 417.707031 394.363281 418.34375 393.722656 C 418.984375 393.085938 419.554688 392.390625 420.054688 391.640625 C 420.558594 390.890625 420.980469 390.097656 421.324219 389.261719 C 421.671875 388.429688 421.933594 387.566406 422.109375 386.683594 C 422.285156 385.796875 422.371094 384.902344 422.371094 384 C 422.371094 383.097656 422.285156 382.203125 422.109375 381.316406 C 421.933594 380.433594 421.671875 379.570312 421.324219 378.738281 C 420.980469 377.902344 420.558594 377.109375 420.054688 376.359375 C 419.554688 375.609375 418.984375 374.914062 418.34375 374.277344 C 417.707031 373.636719 417.011719 373.066406 416.261719 372.566406 C 415.511719 372.066406 414.71875 371.640625 413.882812 371.296875 C 413.050781 370.949219 412.191406 370.691406 411.304688 370.511719 C 410.417969 370.335938 409.523438 370.25 408.621094 370.25 L 316.96875 370.25 C 316.066406 370.25 315.171875 370.335938 314.285156 370.511719 C 313.402344 370.691406 312.542969 370.949219 311.707031 371.296875 C 310.871094 371.640625 310.082031 372.066406 309.328125 372.566406 C 308.578125 373.066406 307.882812 373.636719 307.246094 374.277344 C 306.605469 374.914062 306.039062 375.609375 305.535156 376.359375 C 305.035156 377.109375 304.609375 377.902344 304.265625 378.738281 C 303.917969 379.570312 303.660156 380.433594 303.480469 381.316406 C 303.304688 382.203125 303.21875 383.097656 303.21875 384 C 303.21875 384.902344 303.304688 385.796875 303.480469 386.683594 C 303.660156 387.566406 303.917969 388.429688 304.265625 389.261719 C 304.609375 390.097656 305.035156 390.890625 305.535156 391.640625 C 306.039062 392.390625 306.605469 393.085938 307.246094 393.722656 C 307.882812 394.363281 308.578125 394.933594 309.328125 395.433594 C 310.082031 395.933594 310.871094 396.359375 311.707031 396.703125 C 312.542969 397.050781 313.402344 397.308594 314.285156 397.488281 C 315.171875 397.664062 316.066406 397.75 316.96875 397.75 Z M 316.96875 397.75 " fill-opacity="1" fill-rule="nonzero"/><path fill="#ffffff" d="M 484.082031 397.75 L 575.769531 397.75 C 576.671875 397.75 577.566406 397.664062 578.449219 397.488281 C 579.335938 397.308594 580.195312 397.050781 581.03125 396.703125 C 581.863281 396.359375 582.65625 395.933594 583.40625 395.433594 C 584.160156 394.933594 584.851562 394.363281 585.492188 393.722656 C 586.128906 393.085938 586.699219 392.390625 587.203125 391.640625 C 587.703125 390.890625 588.128906 390.097656 588.472656 389.261719 C 588.816406 388.429688 589.078125 387.566406 589.253906 386.683594 C 589.429688 385.796875 589.519531 384.902344 589.519531 384 C 589.519531 383.097656 589.429688 382.203125 589.253906 381.316406 C 589.078125 380.433594 588.816406 379.570312 588.472656 378.738281 C 588.128906 377.902344 587.703125 377.109375 587.203125 376.359375 C 586.699219 375.609375 586.128906 374.914062 585.492188 374.277344 C 584.851562 373.636719 584.160156 373.066406 583.40625 372.566406 C 582.65625 372.066406 581.863281 371.640625 581.03125 371.296875 C 580.195312 370.949219 579.335938 370.691406 578.449219 370.511719 C 577.566406 370.335938 576.671875 370.25 575.769531 370.25 L 484.082031 370.25 C 483.179688 370.25 482.285156 370.335938 481.398438 370.511719 C 480.511719 370.691406 479.652344 370.949219 478.820312 371.296875 C 477.984375 371.640625 477.191406 372.066406 476.441406 372.566406 C 475.691406 373.066406 474.996094 373.636719 474.359375 374.277344 C 473.71875 374.914062 473.148438 375.609375 472.648438 376.359375 C 472.144531 377.109375 471.722656 377.902344 471.378906 378.738281 C 471.03125 379.570312 470.769531 380.433594 470.59375 381.316406 C 470.417969 382.203125 470.332031 383.097656 470.332031 384 C 470.332031 384.902344 470.417969 385.796875 470.59375 386.683594 C 470.769531 387.566406 471.03125 388.429688 471.378906 389.261719 C 471.722656 390.097656 472.144531 390.890625 472.648438 391.640625 C 473.148438 392.390625 473.71875 393.085938 474.359375 393.722656 C 474.996094 394.363281 475.691406 394.933594 476.441406 395.433594 C 477.191406 395.933594 477.984375 396.359375 478.820312 396.703125 C 479.652344 397.050781 480.511719 397.308594 481.398438 397.488281 C 482.285156 397.664062 483.179688 397.75 484.082031 397.75 Z M 484.082031 397.75 " fill-opacity="1" fill-rule="nonzero"/><g clip-path="url(#id1)"><path fill="#ffffff" d="M 59.132812 767.304688 L 708.878906 767.304688 C 709.785156 767.304688 710.675781 767.214844 711.5625 767.039062 C 712.449219 766.863281 713.308594 766.601562 714.144531 766.257812 C 714.976562 765.910156 715.769531 765.488281 716.519531 764.984375 C 717.269531 764.484375 717.964844 763.914062 718.605469 763.277344 C 719.242188 762.636719 719.8125 761.941406 720.3125 761.191406 C 720.816406 760.441406 721.238281 759.648438 721.585938 758.816406 C 721.929688 757.980469 722.191406 757.121094 722.367188 756.234375 C 722.542969 755.347656 722.632812 754.457031 722.632812 753.550781 L 722.632812 546.464844 C 722.632812 545.5625 722.542969 544.667969 722.367188 543.78125 C 722.191406 542.898438 721.929688 542.039062 721.585938 541.203125 C 721.238281 540.371094 720.816406 539.578125 720.3125 538.824219 C 719.8125 538.074219 719.242188 537.378906 718.605469 536.742188 C 717.964844 536.105469 717.269531 535.535156 716.519531 535.03125 C 715.769531 534.53125 714.976562 534.105469 714.144531 533.761719 C 713.308594 533.414062 712.449219 533.15625 711.5625 532.980469 C 710.675781 532.804688 709.785156 532.714844 708.878906 532.714844 L 589.519531 532.714844 L 589.519531 501.292969 L 708.878906 501.292969 C 709.785156 501.292969 710.675781 501.207031 711.5625 501.03125 C 712.449219 500.855469 713.308594 500.59375 714.144531 500.246094 C 714.976562 499.902344 715.769531 499.476562 716.519531 498.976562 C 717.269531 498.476562 717.964844 497.90625 718.605469 497.265625 C 719.242188 496.628906 719.8125 495.933594 720.3125 495.183594 C 720.816406 494.433594 721.238281 493.640625 721.585938 492.804688 C 721.929688 491.972656 722.191406 491.113281 722.367188 490.226562 C 722.542969 489.339844 722.632812 488.445312 722.632812 487.542969 L 722.632812 280.457031 C 722.632812 279.554688 722.542969 278.660156 722.367188 277.773438 C 722.191406 276.886719 721.929688 276.027344 721.585938 275.195312 C 721.238281 274.359375 720.816406 273.566406 720.3125 272.816406 C 719.8125 272.066406 719.242188 271.371094 718.605469 270.734375 C 717.964844 270.09375 717.269531 269.523438 716.519531 269.023438 C 715.769531 268.523438 714.976562 268.097656 714.144531 267.753906 C 713.308594 267.40625 712.449219 267.144531 711.5625 266.96875 C 710.675781 266.792969 709.785156 266.707031 708.878906 266.707031 L 589.519531 266.707031 L 589.519531 235.285156 L 708.878906 235.285156 C 709.785156 235.285156 710.675781 235.195312 711.5625 235.019531 C 712.449219 234.84375 713.308594 234.582031 714.144531 234.238281 C 714.976562 233.894531 715.769531 233.46875 716.519531 232.96875 C 717.269531 232.464844 717.964844 231.894531 718.605469 231.257812 C 719.242188 230.621094 719.8125 229.925781 720.3125 229.175781 C 720.816406 228.421875 721.238281 227.628906 721.585938 226.796875 C 721.929688 225.960938 722.191406 225.101562 722.367188 224.21875 C 722.542969 223.332031 722.632812 222.4375 722.632812 221.535156 L 722.632812 14.449219 C 722.632812 13.542969 722.542969 12.648438 722.367188 11.765625 C 722.191406 10.878906 721.929688 10.019531 721.585938 9.183594 C 721.238281 8.351562 720.816406 7.558594 720.3125 6.808594 C 719.8125 6.058594 719.242188 5.363281 718.605469 4.722656 C 717.964844 4.085938 717.269531 3.515625 716.519531 3.015625 C 715.769531 2.511719 714.976562 2.089844 714.144531 1.742188 C 713.308594 1.398438 712.449219 1.136719 711.5625 0.960938 C 710.675781 0.785156 709.785156 0.695312 708.878906 0.695312 L 59.132812 0.695312 C 58.230469 0.695312 57.335938 0.785156 56.449219 0.960938 C 55.566406 1.136719 54.703125 1.398438 53.871094 1.742188 C 53.035156 2.089844 52.242188 2.511719 51.492188 3.015625 C 50.742188 3.515625 50.046875 4.085938 49.410156 4.722656 C 48.769531 5.363281 48.199219 6.058594 47.699219 6.808594 C 47.199219 7.558594 46.773438 8.351562 46.429688 9.183594 C 46.082031 10.019531 45.820312 10.878906 45.644531 11.765625 C 45.46875 12.648438 45.382812 13.542969 45.382812 14.449219 L 45.382812 221.535156 C 45.382812 222.4375 45.46875 223.332031 45.644531 224.21875 C 45.820312 225.101562 46.082031 225.960938 46.429688 226.796875 C 46.773438 227.628906 47.199219 228.421875 47.699219 229.175781 C 48.199219 229.925781 48.769531 230.621094 49.410156 231.257812 C 50.046875 231.894531 50.742188 232.464844 51.492188 232.96875 C 52.242188 233.46875 53.035156 233.894531 53.871094 234.238281 C 54.703125 234.582031 55.566406 234.84375 56.449219 235.019531 C 57.335938 235.195312 58.230469 235.285156 59.132812 235.285156 L 167.800781 235.285156 L 167.800781 266.707031 L 59.132812 266.707031 C 58.230469 266.707031 57.335938 266.792969 56.449219 266.96875 C 55.566406 267.144531 54.703125 267.40625 53.871094 267.753906 C 53.035156 268.097656 52.242188 268.523438 51.492188 269.023438 C 50.742188 269.523438 50.046875 270.09375 49.410156 270.734375 C 48.769531 271.371094 48.199219 272.066406 47.699219 272.816406 C 47.199219 273.566406 46.773438 274.359375 46.429688 275.195312 C 46.082031 276.027344 45.820312 276.886719 45.644531 277.773438 C 45.46875 278.660156 45.382812 279.554688 45.382812 280.457031 L 45.382812 487.542969 C 45.382812 488.445312 45.46875 489.339844 45.644531 490.226562 C 45.820312 491.113281 46.082031 491.972656 46.429688 492.804688 C 46.773438 493.640625 47.199219 494.433594 47.699219 495.183594 C 48.199219 495.933594 48.769531 496.628906 49.410156 497.265625 C 50.046875 497.90625 50.742188 498.476562 51.492188 498.976562 C 52.242188 499.476562 53.035156 499.902344 53.871094 500.246094 C 54.703125 500.59375 55.566406 500.855469 56.449219 501.03125 C 57.335938 501.207031 58.230469 501.292969 59.132812 501.292969 L 167.800781 501.292969 L 167.800781 532.714844 L 59.132812 532.714844 C 58.230469 532.714844 57.335938 532.804688 56.449219 532.980469 C 55.566406 533.15625 54.703125 533.417969 53.871094 533.761719 C 53.035156 534.105469 52.242188 534.53125 51.492188 535.03125 C 50.742188 535.535156 50.046875 536.105469 49.410156 536.742188 C 48.769531 537.378906 48.199219 538.074219 47.699219 538.824219 C 47.199219 539.578125 46.773438 540.371094 46.429688 541.203125 C 46.082031 542.039062 45.820312 542.898438 45.644531 543.78125 C 45.46875 544.667969 45.382812 545.5625 45.382812 546.464844 L 45.382812 753.550781 C 45.382812 754.457031 45.46875 755.347656 45.644531 756.234375 C 45.820312 757.121094 46.082031 757.980469 46.429688 758.816406 C 46.773438 759.648438 47.199219 760.441406 47.699219 761.191406 C 48.199219 761.941406 48.769531 762.636719 49.410156 763.277344 C 50.046875 763.914062 50.742188 764.484375 51.492188 764.984375 C 52.242188 765.488281 53.035156 765.910156 53.871094 766.257812 C 54.703125 766.601562 55.566406 766.863281 56.449219 767.039062 C 57.335938 767.214844 58.230469 767.304688 59.132812 767.304688 Z M 72.882812 28.199219 L 695.128906 28.199219 L 695.128906 207.785156 L 72.882812 207.785156 Z M 195.304688 235.285156 L 562.015625 235.285156 L 562.015625 266.707031 L 195.304688 266.707031 Z M 72.882812 294.207031 L 695.128906 294.207031 L 695.128906 473.792969 L 72.882812 473.792969 Z M 195.304688 501.292969 L 562.015625 501.292969 L 562.015625 532.714844 L 195.304688 532.714844 Z M 72.882812 560.214844 L 695.128906 560.214844 L 695.128906 739.800781 L 72.882812 739.800781 Z M 72.882812 560.214844 " fill-opacity="1" fill-rule="nonzero"/></g><path fill="#ffffff" d="M 181.554688 586.378906 C 179.789062 586.378906 178.027344 586.464844 176.269531 586.636719 C 174.515625 586.808594 172.769531 587.070312 171.039062 587.414062 C 169.308594 587.757812 167.597656 588.1875 165.90625 588.699219 C 164.21875 589.210938 162.558594 589.804688 160.929688 590.480469 C 159.296875 591.15625 157.703125 591.914062 156.148438 592.746094 C 154.589844 593.578125 153.078125 594.484375 151.609375 595.464844 C 150.144531 596.445312 148.726562 597.496094 147.363281 598.617188 C 146 599.738281 144.691406 600.921875 143.445312 602.171875 C 142.199219 603.421875 141.015625 604.726562 139.894531 606.09375 C 138.777344 607.457031 137.726562 608.875 136.746094 610.34375 C 135.765625 611.808594 134.859375 613.324219 134.03125 614.878906 C 133.199219 616.4375 132.445312 618.03125 131.769531 619.664062 C 131.097656 621.292969 130.503906 622.953125 129.992188 624.644531 C 129.480469 626.332031 129.054688 628.042969 128.710938 629.777344 C 128.367188 631.507812 128.109375 633.25 127.9375 635.007812 C 127.765625 636.765625 127.683594 638.527344 127.683594 640.292969 C 127.683594 642.058594 127.773438 643.816406 127.949219 645.574219 C 128.121094 647.332031 128.382812 649.074219 128.730469 650.804688 C 129.074219 652.535156 129.503906 654.246094 130.019531 655.933594 C 130.53125 657.625 131.128906 659.285156 131.804688 660.914062 C 132.484375 662.542969 133.238281 664.136719 134.074219 665.691406 C 134.90625 667.25 135.816406 668.757812 136.796875 670.226562 C 137.78125 671.691406 138.832031 673.109375 139.953125 674.472656 C 141.074219 675.835938 142.261719 677.140625 143.511719 678.386719 C 144.761719 679.632812 146.066406 680.816406 147.433594 681.933594 C 148.800781 683.050781 150.21875 684.097656 151.6875 685.078125 C 153.15625 686.054688 154.667969 686.960938 156.226562 687.789062 C 157.785156 688.621094 159.378906 689.371094 161.011719 690.042969 C 162.644531 690.71875 164.304688 691.308594 165.996094 691.820312 C 167.6875 692.328125 169.398438 692.753906 171.128906 693.097656 C 172.859375 693.4375 174.605469 693.695312 176.363281 693.863281 C 178.121094 694.035156 179.878906 694.117188 181.644531 694.113281 C 183.410156 694.113281 185.171875 694.023438 186.929688 693.847656 C 188.683594 693.667969 190.429688 693.40625 192.160156 693.058594 C 193.890625 692.714844 195.597656 692.28125 197.289062 691.765625 C 198.976562 691.25 200.636719 690.652344 202.265625 689.976562 C 203.894531 689.296875 205.488281 688.539062 207.042969 687.703125 C 208.597656 686.867188 210.109375 685.960938 211.574219 684.976562 C 213.039062 683.992188 214.453125 682.9375 215.816406 681.816406 C 217.175781 680.695312 218.480469 679.507812 219.726562 678.253906 C 220.972656 677.003906 222.152344 675.695312 223.269531 674.328125 C 224.386719 672.960938 225.433594 671.542969 226.414062 670.074219 C 227.390625 668.605469 228.292969 667.089844 229.121094 665.53125 C 229.949219 663.972656 230.699219 662.375 231.371094 660.746094 C 232.042969 659.113281 232.632812 657.449219 233.140625 655.761719 C 233.652344 654.070312 234.074219 652.359375 234.414062 650.625 C 234.753906 648.894531 235.007812 647.148438 235.179688 645.390625 C 235.347656 643.636719 235.429688 641.875 235.425781 640.109375 C 235.417969 638.347656 235.328125 636.589844 235.152344 634.835938 C 234.976562 633.085938 234.714844 631.34375 234.367188 629.617188 C 234.019531 627.890625 233.585938 626.1875 233.074219 624.5 C 232.558594 622.816406 231.960938 621.164062 231.285156 619.535156 C 230.605469 617.910156 229.851562 616.320312 229.019531 614.769531 C 228.1875 613.21875 227.277344 611.710938 226.296875 610.246094 C 225.316406 608.785156 224.265625 607.371094 223.148438 606.011719 C 222.027344 604.652344 220.84375 603.351562 219.597656 602.105469 C 218.351562 600.863281 217.046875 599.683594 215.683594 598.566406 C 214.320312 597.449219 212.90625 596.40625 211.441406 595.425781 C 209.972656 594.449219 208.464844 593.546875 206.910156 592.71875 C 205.355469 591.886719 203.765625 591.136719 202.136719 590.464844 C 200.507812 589.792969 198.851562 589.199219 197.167969 588.6875 C 195.480469 588.179688 193.773438 587.753906 192.046875 587.410156 C 190.320312 587.066406 188.578125 586.808594 186.824219 586.636719 C 185.074219 586.464844 183.316406 586.378906 181.554688 586.378906 Z M 181.554688 666.578125 C 180.691406 666.578125 179.832031 666.535156 178.972656 666.453125 C 178.113281 666.367188 177.261719 666.242188 176.414062 666.074219 C 175.566406 665.90625 174.730469 665.695312 173.90625 665.445312 C 173.078125 665.195312 172.269531 664.90625 171.472656 664.574219 C 170.671875 664.246094 169.894531 663.875 169.132812 663.46875 C 168.371094 663.0625 167.632812 662.621094 166.914062 662.140625 C 166.199219 661.664062 165.503906 661.148438 164.835938 660.601562 C 164.171875 660.054688 163.53125 659.476562 162.921875 658.867188 C 162.308594 658.257812 161.730469 657.621094 161.183594 656.953125 C 160.636719 656.285156 160.121094 655.59375 159.640625 654.878906 C 159.160156 654.160156 158.71875 653.421875 158.308594 652.660156 C 157.902344 651.902344 157.535156 651.121094 157.203125 650.324219 C 156.871094 649.527344 156.582031 648.71875 156.328125 647.890625 C 156.078125 647.066406 155.867188 646.230469 155.699219 645.386719 C 155.527344 644.539062 155.402344 643.6875 155.316406 642.828125 C 155.230469 641.96875 155.1875 641.109375 155.1875 640.246094 C 155.183594 639.382812 155.226562 638.523438 155.308594 637.664062 C 155.394531 636.804688 155.519531 635.953125 155.683594 635.105469 C 155.851562 634.257812 156.058594 633.421875 156.308594 632.597656 C 156.558594 631.769531 156.847656 630.957031 157.175781 630.160156 C 157.503906 629.363281 157.871094 628.582031 158.277344 627.820312 C 158.683594 627.058594 159.125 626.320312 159.605469 625.601562 C 160.082031 624.882812 160.59375 624.191406 161.140625 623.523438 C 161.6875 622.855469 162.261719 622.214844 162.871094 621.605469 C 163.480469 620.992188 164.117188 620.414062 164.785156 619.863281 C 165.449219 619.316406 166.140625 618.800781 166.859375 618.320312 C 167.574219 617.839844 168.3125 617.394531 169.074219 616.984375 C 169.832031 616.578125 170.613281 616.207031 171.40625 615.875 C 172.203125 615.542969 173.015625 615.25 173.839844 614.996094 C 174.664062 614.746094 175.5 614.535156 176.347656 614.363281 C 177.191406 614.195312 178.042969 614.066406 178.902344 613.976562 C 179.761719 613.890625 180.621094 613.847656 181.484375 613.84375 C 182.347656 613.84375 183.210938 613.882812 184.066406 613.964844 C 184.925781 614.046875 185.78125 614.171875 186.625 614.335938 C 187.472656 614.503906 188.308594 614.710938 189.136719 614.957031 C 189.960938 615.207031 190.773438 615.496094 191.574219 615.820312 C 192.371094 616.148438 193.152344 616.515625 193.914062 616.921875 C 194.675781 617.324219 195.417969 617.765625 196.136719 618.242188 C 196.855469 618.71875 197.546875 619.230469 198.21875 619.777344 C 198.886719 620.320312 199.527344 620.898438 200.136719 621.507812 C 200.75 622.113281 201.332031 622.75 201.878906 623.417969 C 202.429688 624.082031 202.945312 624.773438 203.429688 625.488281 C 203.910156 626.203125 204.355469 626.941406 204.765625 627.699219 C 205.175781 628.460938 205.546875 629.238281 205.878906 630.035156 C 206.210938 630.832031 206.503906 631.640625 206.757812 632.464844 C 207.011719 633.289062 207.222656 634.125 207.394531 634.972656 C 207.566406 635.816406 207.695312 636.667969 207.785156 637.527344 C 207.871094 638.386719 207.917969 639.246094 207.921875 640.109375 C 207.925781 640.972656 207.882812 641.835938 207.800781 642.699219 C 207.71875 643.558594 207.59375 644.414062 207.425781 645.265625 C 207.261719 646.113281 207.050781 646.953125 206.804688 647.78125 C 206.554688 648.609375 206.265625 649.425781 205.933594 650.226562 C 205.605469 651.027344 205.238281 651.808594 204.832031 652.570312 C 204.425781 653.335938 203.984375 654.078125 203.503906 654.796875 C 203.023438 655.519531 202.511719 656.214844 201.960938 656.882812 C 201.414062 657.554688 200.835938 658.195312 200.226562 658.808594 C 199.613281 659.421875 198.976562 660.003906 198.308594 660.554688 C 197.640625 661.105469 196.945312 661.621094 196.226562 662.101562 C 195.507812 662.585938 194.769531 663.03125 194.003906 663.441406 C 193.242188 663.847656 192.460938 664.21875 191.664062 664.550781 C 190.863281 664.886719 190.050781 665.175781 189.222656 665.429688 C 188.394531 665.683594 187.558594 665.894531 186.707031 666.0625 C 185.859375 666.234375 185.003906 666.363281 184.144531 666.449219 C 183.28125 666.535156 182.417969 666.578125 181.554688 666.578125 Z M 181.554688 666.578125 " fill-opacity="1" fill-rule="nonzero"/><path fill="#ffffff" d="M 408.449219 636.257812 L 316.96875 636.257812 C 316.066406 636.257812 315.171875 636.347656 314.285156 636.523438 C 313.402344 636.699219 312.542969 636.960938 311.707031 637.304688 C 310.871094 637.652344 310.082031 638.074219 309.328125 638.574219 C 308.578125 639.078125 307.882812 639.648438 307.246094 640.285156 C 306.605469 640.925781 306.039062 641.617188 305.535156 642.371094 C 305.035156 643.121094 304.609375 643.914062 304.265625 644.746094 C 303.917969 645.582031 303.660156 646.441406 303.480469 647.328125 C 303.304688 648.210938 303.21875 649.105469 303.21875 650.007812 C 303.21875 650.910156 303.304688 651.804688 303.480469 652.691406 C 303.660156 653.578125 303.917969 654.4375 304.265625 655.269531 C 304.609375 656.105469 305.035156 656.898438 305.535156 657.648438 C 306.039062 658.398438 306.605469 659.09375 307.246094 659.730469 C 307.882812 660.371094 308.578125 660.941406 309.328125 661.441406 C 310.082031 661.945312 310.871094 662.367188 311.707031 662.714844 C 312.542969 663.058594 313.402344 663.320312 314.285156 663.496094 C 315.171875 663.671875 316.066406 663.761719 316.96875 663.761719 L 408.621094 663.761719 C 409.523438 663.761719 410.417969 663.671875 411.304688 663.496094 C 412.191406 663.320312 413.050781 663.058594 413.882812 662.714844 C 414.71875 662.367188 415.511719 661.945312 416.261719 661.441406 C 417.011719 660.941406 417.707031 660.371094 418.34375 659.730469 C 418.984375 659.09375 419.554688 658.398438 420.054688 657.648438 C 420.558594 656.898438 420.980469 656.105469 421.324219 655.269531 C 421.671875 654.4375 421.933594 653.578125 422.109375 652.691406 C 422.285156 651.804688 422.371094 650.910156 422.371094 650.007812 C 422.371094 649.105469 422.285156 648.210938 422.109375 647.328125 C 421.933594 646.441406 421.671875 645.582031 421.324219 644.746094 C 420.980469 643.914062 420.558594 643.121094 420.054688 642.371094 C 419.554688 641.617188 418.984375 640.925781 418.34375 640.285156 C 417.707031 639.648438 417.011719 639.078125 416.261719 638.574219 C 415.511719 638.074219 414.71875 637.652344 413.882812 637.304688 C 413.050781 636.960938 412.191406 636.699219 411.304688 636.523438 C 410.417969 636.347656 409.523438 636.257812 408.621094 636.257812 Z M 408.449219 636.257812 " fill-opacity="1" fill-rule="nonzero"/><path fill="#ffffff" d="M 575.769531 636.257812 L 484.082031 636.257812 C 483.179688 636.257812 482.285156 636.347656 481.398438 636.523438 C 480.511719 636.699219 479.652344 636.960938 478.820312 637.304688 C 477.984375 637.652344 477.191406 638.074219 476.441406 638.574219 C 475.691406 639.078125 474.996094 639.648438 474.359375 640.285156 C 473.71875 640.925781 473.148438 641.617188 472.648438 642.371094 C 472.144531 643.121094 471.722656 643.914062 471.378906 644.746094 C 471.03125 645.582031 470.769531 646.441406 470.59375 647.328125 C 470.417969 648.210938 470.332031 649.105469 470.332031 650.007812 C 470.332031 650.910156 470.417969 651.804688 470.59375 652.691406 C 470.769531 653.578125 471.03125 654.4375 471.378906 655.269531 C 471.722656 656.105469 472.144531 656.898438 472.648438 657.648438 C 473.148438 658.398438 473.71875 659.09375 474.359375 659.730469 C 474.996094 660.371094 475.691406 660.941406 476.441406 661.441406 C 477.191406 661.945312 477.984375 662.367188 478.820312 662.714844 C 479.652344 663.058594 480.511719 663.320312 481.398438 663.496094 C 482.285156 663.671875 483.179688 663.761719 484.082031 663.761719 L 575.769531 663.761719 C 576.671875 663.761719 577.566406 663.671875 578.449219 663.496094 C 579.335938 663.320312 580.195312 663.058594 581.03125 662.714844 C 581.863281 662.367188 582.65625 661.945312 583.40625 661.441406 C 584.160156 660.941406 584.851562 660.371094 585.492188 659.730469 C 586.128906 659.09375 586.699219 658.398438 587.203125 657.648438 C 587.703125 656.898438 588.128906 656.105469 588.472656 655.269531 C 588.816406 654.4375 589.078125 653.578125 589.253906 652.691406 C 589.429688 651.804688 589.519531 650.910156 589.519531 650.007812 C 589.519531 649.105469 589.429688 648.210938 589.253906 647.328125 C 589.078125 646.441406 588.816406 645.582031 588.472656 644.746094 C 588.128906 643.914062 587.703125 643.121094 587.203125 642.371094 C 586.699219 641.617188 586.128906 640.925781 585.492188 640.285156 C 584.851562 639.648438 584.160156 639.078125 583.40625 638.574219 C 582.65625 638.074219 581.863281 637.652344 581.03125 637.304688 C 580.195312 636.960938 579.335938 636.699219 578.449219 636.523438 C 577.566406 636.347656 576.671875 636.257812 575.769531 636.257812 Z M 575.769531 636.257812 " fill-opacity="1" fill-rule="nonzero"/></svg>